<?xml version="1.0" encoding="UTF-8" standalone="no"?>
<!-- Created with Inkscape (http://www.inkscape.org/) -->

<svg
   xmlns:dc="http://purl.org/dc/elements/1.1/"
   xmlns:cc="http://creativecommons.org/ns#"
   xmlns:rdf="http://www.w3.org/1999/02/22-rdf-syntax-ns#"
   xmlns:svg="http://www.w3.org/2000/svg"
   xmlns="http://www.w3.org/2000/svg"
   xmlns:sodipodi="http://sodipodi.sourceforge.net/DTD/sodipodi-0.dtd"
   xmlns:inkscape="http://www.inkscape.org/namespaces/inkscape"
   version="1.1"
   width="80.99765"
   height="80.99765"
   id="svg2985"
   inkscape:version="0.92.4 (5da689c313, 2019-01-14)"
   sodipodi:docname="windows.svg"
   inkscape:export-filename="/home/s/Desktop/Repositories/bow-simulator.gitlab.io/docs/images/windows.png"
   inkscape:export-xdpi="151.7081"
   inkscape:export-ydpi="151.7081">
  <sodipodi:namedview
     pagecolor="#ffffff"
     bordercolor="#666666"
     borderopacity="1"
     objecttolerance="10"
     gridtolerance="10"
     guidetolerance="10"
     inkscape:pageopacity="0"
     inkscape:pageshadow="2"
     inkscape:window-width="1920"
     inkscape:window-height="1009"
     id="namedview6"
     showgrid="false"
     inkscape:zoom="5.6568542"
     inkscape:cx="40.417338"
     inkscape:cy="28.046631"
     inkscape:window-x="0"
     inkscape:window-y="0"
     inkscape:window-maximized="1"
     inkscape:current-layer="svg2985"
     fit-margin-top="0"
     fit-margin-left="0"
     fit-margin-right="0"
     fit-margin-bottom="0" />
  <metadata
     id="metadata2991">
    <rdf:RDF>
      <cc:Work
         rdf:about="">
        <dc:format>image/svg+xml</dc:format>
        <dc:type
           rdf:resource="http://purl.org/dc/dcmitype/StillImage" />
        <dc:title />
      </cc:Work>
    </rdf:RDF>
  </metadata>
  <defs
     id="defs2989" />
  <g
     id="g813"
     style="fill:#444444;fill-opacity:1;stroke:#444444;stroke-opacity:1"
     transform="translate(0.62264747,6.372641)">
    <path
       inkscape:connector-curvature="0"
       id="path3393"
       d="m 31.439503,0.00489087 c -2.103369,-0.04274 -4.376144,0.194968 -6.761592,0.700224 -2.577029,0.54467803 -5.389427,1.41290803 -8.365121,2.61235503 -0.0261,0.01067 -0.105898,0.05394 -0.133632,0.161582 l -0.400885,1.292717 -7.13575,24.1845221 c -0.0083,0.02475 -0.02674,0.04957 -0.02674,0.0808 0,0.117499 0.04739,0.25517 0.106897,0.296245 0.01148,0.009 0.04367,0.02125 0.05345,0.0269 l 0.02674,0.0269 0.454333,0.35011 c 0.01459,0.01175 0.04367,0.0205 0.05345,0.0269 0.0905,0.03615 0.109975,0.02942 0.133618,0.02692 h 0.02674 c 0.06521,-0.0057 0.212988,-0.07915 0.213813,-0.0808 6.522886,-2.52377 11.731589,-3.440326 16.409547,-2.881678 1.994938,0.238275 3.930179,0.770708 5.906367,1.588963 1.573452,0.653122 3.194446,1.51178 5.104599,2.693152 h 0.02672 0.02673 0.02672 v 0.0269 c 8.13e-4,0 0.142526,0.05898 0.267258,0.0269 0,-0.0016 0.481061,-0.1885 0.481061,-0.1885 l 0.02672,-0.02692 c 0.06277,-0.04518 0.159375,-0.122425 0.187075,-0.242375 l 4.703713,-15.862676 2.538935,-8.5373001 0.16035,-0.565555 c 0,-8.3e-4 0.13363,-0.403975 0.13363,-0.403975 0.0032,-0.0135 -0.0024,-0.03825 0,-0.05387 v -0.02692 c 0,-0.0953 -0.03597,-0.195575 -0.106896,-0.242375 -1.496,-0.989134 -2.68267,-1.68042 -3.848494,-2.289183 l -0.08015,-0.05386 C 38.280873,0.92042587 35.029096,0.07884287 31.439508,0.00489787 Z M 49.131881,7.6265139 c -0.08467,0.0076 -0.148624,0.06033 -0.267254,0.134644 v -0.0269 c -0.0017,0 -0.13363,0.10772 -0.13363,0.10772 -0.255993,0.186475 -0.411942,0.332323 -0.454335,0.430902 0,0.0035 -0.02673,0.08082 -0.02673,0.08082 0,0.0043 -7.456452,25.2079241 -7.456452,25.2079241 -0.0205,0.05995 -0.05345,0.1384 -0.05345,0.1885 0,0.276035 0.261551,0.403155 0.267258,0.403975 0.591877,0.387765 1.203456,0.759148 1.817346,1.104193 2.865635,1.742488 5.698088,2.888875 8.659107,3.528035 1.714491,0.372973 3.515868,0.575235 5.318403,0.592488 1.948467,0.01825 3.97087,-0.172025 6.039999,-0.565561 3.071076,-0.474853 6.193751,-1.412659 9.273795,-2.77395 0.05869,-0.0271 0.202875,-0.09303 0.267259,-0.215449 0,-0.005 7.590085,-25.450306 7.590085,-25.450306 0.014,-0.04515 0.02672,-0.09278 0.02672,-0.134649 0,-0.218525 -0.1899,-0.4069951 -0.37416,-0.5655631 -0.1019,-0.09527 -0.250418,-0.201299 -0.347431,-0.242375 -0.206248,-0.09525 -0.417469,-0.06388 -0.481064,-0.0269 -1.859601,0.7484331 -3.667147,1.3653481 -5.371855,1.8582781 -1.630518,0.469917 -3.228728,0.839016 -4.730441,1.077262 -1.42996,0.226726 -2.813602,0.358151 -4.142471,0.37704 -1.253872,0.0175 -2.5052,-0.07475 -3.688139,-0.242375 -2.122939,-0.30069 -4.148345,-0.877722 -6.20035,-1.804412 -2.039779,-0.9193051 -3.871853,-2.0653551 -5.238229,-2.9624761 -0.117401,-0.05176 -0.209299,-0.08831 -0.293982,-0.0808 z M 21.871719,30.868436 c -1.323162,0.03288 -2.737604,0.164925 -4.1692,0.403975 -1.500892,0.25056 -3.095027,0.624415 -4.730439,1.104192 -1.705521,0.498673 -3.504908,1.12939 -5.371852,1.885206 h -0.02674 c -0.06359,0.02795 -0.0857,0.0934 -0.106896,0.161575 L 0.01014693,59.819836 c -0.040752,0.134724 0.048848,0.249225 0.1336223,0.323174 l 0.4810614,0.377046 c 0,0 0.020225,0.01975 0.02673,0.02689 0.1198353,0.07968 0.2458825,0.06123 0.2939836,0.05387 C 3.7312834,59.545138 6.212955,58.789125 8.535626,58.284702 c 2.263977,-0.489639 4.32327,-0.709255 6.253804,-0.70022 1.615844,0.01081 3.114493,0.182276 4.623539,0.511699 1.36311,0.301504 2.700816,0.707777 4.062298,1.292718 1.745994,0.798655 3.491703,1.783741 4.970965,2.746982 0.04075,0.02075 0.1774,0.0526 0.293982,0 0,0 0.328967,-0.184026 0.427611,-0.242375 l 0.02672,-0.0269 c 0.06688,-0.046 0.159375,-0.09882 0.187074,-0.21545 v -0.02689 c 0.0145,-0.04847 7.403011,-24.723149 7.403011,-24.723149 l 0.267256,-0.834877 c 0.0041,-0.02075 0,-0.05863 0,-0.08082 0,-0.09773 -0.03597,-0.1653 -0.106897,-0.215475 h -0.02672 v -0.0269 c -3.150162,-2.083428 -6.691682,-4.075686 -11.385131,-4.686093 -1.177232,-0.1553 -2.409174,-0.218925 -3.661414,-0.1885 z m 18.467424,7.513895 c -0.08642,0.0032 -0.159449,0.05417 -0.293981,0.134657 -0.03343,0.02299 -0.11597,0.08768 -0.213826,0.161575 -0.198925,0.152825 -0.3391,0.265487 -0.374157,0.350107 -8.16e-4,0.0058 0,0.0269 0,0.0269 l -7.456452,25.154067 c -0.128796,0.377087 0.228126,0.597245 0.267259,0.619427 1.909338,1.249557 3.722972,2.218793 5.558935,2.9894 1.076142,0.455133 2.190733,0.849981 3.287256,1.158056 1.188647,0.336828 2.410167,0.58156 3.634687,0.754082 1.312564,0.183175 2.649811,0.272603 4.008845,0.269317 1.443826,-0.0073 2.933123,-0.104681 4.436458,-0.323179 1.58894,-0.230826 3.234191,-0.579588 4.890795,-1.050333 1.741393,-0.492917 3.552198,-1.127745 5.371853,-1.885208 0.0024,0 0.02673,-0.02689 0.02673,-0.02689 0.05055,-0.03206 0.151824,-0.09386 0.213801,-0.215452 0,-0.0024 7.266931,-24.742693 7.269374,-24.750085 v -0.0269 c 0.01,-0.03698 0.02672,-0.07403 0.02672,-0.10772 0,-0.203749 -0.131997,-0.320713 -0.133631,-0.32318 -0.214021,-0.133548 -0.433935,-0.341793 -0.614685,-0.484735 -0.03995,-0.04272 -0.140826,-0.09086 -0.400886,-0.05388 -1.8645,0.616975 -3.677749,1.108078 -5.371858,1.508167 -1.632145,0.382838 -3.212605,0.68025 -4.703713,0.86181 -2.812645,0.34915 -5.356661,0.34915 -7.777165,0 -2.130277,-0.303149 -4.133216,-0.869862 -6.146906,-1.750552 -1.626443,-0.71063 -3.306062,-1.637682 -5.238224,-2.908605 -0.117402,-0.0534 -0.194701,-0.08082 -0.267256,-0.08082 z"
       style="fill:#444444;fill-opacity:1;stroke:#444444;stroke-linecap:butt;stroke-opacity:1"
       sodipodi:nodetypes="ccccccsccccccccccccccccccccccccsccccccccccccsccccccccsccccccccccccccccccccccccccccccccccsccccccccccccccccccccccccscccccccccc" />
  </g>
</svg>
